<?xml version="1.0" encoding="utf-8"?>
<!-- Generator: Adobe Illustrator 22.1.0, SVG Export Plug-In . SVG Version: 6.00 Build 0)  -->
<svg version="1.1" id="Layer_1" xmlns="http://www.w3.org/2000/svg" xmlns:xlink="http://www.w3.org/1999/xlink" x="0px" y="0px"
	 width="358.4px" height="96.4px" viewBox="0 0 358.4 96.4" style="enable-background:new 0 0 358.4 96.4;" xml:space="preserve">
<style type="text/css">
	.st0{fill:#4E4E4E;}
	.st1{clip-path:url(#SVGID_2_);fill:url(#SVGID_3_);}
</style>
<g>
	<rect x="151.2" y="3.8" class="st0" width="21.6" height="88.9"/>
	<polygon class="st0" points="233.7,48.5 233.2,48.5 216.4,3.8 182.9,3.8 182.9,92.6 206.1,92.6 205.6,40.4 206,40.4 226.2,92.6 
		241.2,92.6 262,40.4 262.4,40.4 261.9,92.6 286,92.6 286,3.8 249.7,3.8 	"/>
	<path class="st0" d="M347.3,46.7c-2.7-2-5.6-3.6-8.9-4.8c-3.3-1.2-6.4-2.3-9.4-3.3c-2.1-0.7-4-1.3-5.6-1.9
		c-1.7-0.6-3.1-1.3-4.3-2.1c-1.2-0.8-2.1-1.6-2.8-2.6c-0.6-1-0.9-2.3-0.9-3.8c0-1.8,0.4-3.2,1.2-4.3c0.8-1.1,1.8-2,2.9-2.8
		c1.2-0.7,2.5-1.2,4-1.4c1.5-0.3,2.9-0.4,4.3-0.4c2.8,0,5.6,0.7,8.6,2.1c3,1.4,5.4,3.2,7.2,5.6l13.7-14.4c-3.9-3.6-8.5-6.3-13.7-8.2
		c-5.2-1.8-10.4-2.8-15.4-2.8c-4.2,0-8.3,0.5-12.4,1.6c-4.1,1-7.8,2.7-11,5c-3.3,2.3-5.9,5.1-7.9,8.7c-2,3.5-3,7.7-3,12.7
		c0,4,0.6,7.4,1.9,10.2c1.3,2.8,3,5.2,5.1,7.2c2.1,2,4.6,3.6,7.3,4.8c2.7,1.3,5.5,2.3,8.3,3.3c2.9,0.9,5.5,1.8,7.8,2.6
		c2.3,0.8,4.2,1.7,5.8,2.6c1.5,1,2.7,2,3.6,3.2c0.8,1.2,1.3,2.6,1.3,4.3c0,1.8-0.3,3.3-1,4.5c-0.7,1.3-1.6,2.3-2.7,3
		c-1.1,0.8-2.4,1.3-4,1.6c-1.5,0.3-3.1,0.5-4.6,0.5c-3.5,0-7-0.9-10.6-2.7c-3.6-1.8-6.4-4-8.6-6.7l-14.1,14.3
		c3.9,4.1,8.9,7.3,14.8,9.5c5.9,2.2,12.1,3.3,18.4,3.3c4.4,0,8.6-0.6,12.7-1.8c4.1-1.2,7.7-3,10.9-5.4c3.2-2.4,5.7-5.5,7.6-9.2
		c1.9-3.7,2.8-8.1,2.8-13.2c0-4.4-0.9-8.1-2.6-11.1C352.2,51.2,349.9,48.7,347.3,46.7"/>
	<g>
		<defs>
			<path id="SVGID_1_" d="M122.9,3.6L122.9,3.6C117,3.7,112.3,4.1,107,6.1c-11.3,4.2-20.9,12.8-24.7,24.4c-1.3,4-1.8,6.7-2,12.2
				H51.2v16.5c0,0,16.1,0,16.1,0c0,6.4-4.1,11.9-9.9,14.2c-4.6,1.8-9.7,1.8-14.5,0.7c-4.8-1.1-9.4-3.3-12.9-6.7
				c-5.3-5-7-12.2-7-19.3c0-3.8,0.6-7.3,1.9-10.6c1.2-3.2,3-6,5.2-8.4c2.2-2.3,4.9-4.2,7.9-5.5c3-1.3,6.3-2,9.9-2
				c4.1,0,6.5,0.2,11.1,2.2c4.6,2,7.8,3.9,7.8,3.9c0.6-3,2.3-9.2,7.9-14.9c0,0-3.8-4-9.3-6.1c-5.6-2.2-11.4-3.1-18.1-3.1
				c-6.5,0-12.5,1-18,3.1c-5.6,2.1-10.4,5-14.6,8.9c-4.1,3.9-7.4,8.5-9.7,14c-2.3,5.5-3.5,11.6-3.5,18.4c0,6.7,1.2,12.8,3.5,18.2
				c2.3,5.5,5.5,10.1,9.6,14c4.1,3.9,10.7,8.9,16.4,11.1c11.1,4.2,25.4,4.2,36.4-0.4c13.6-5.8,17.6-16.2,17.6-16.2
				c1.7,2.6,3.6,5,5.9,7.2c4.1,3.9,8.9,6.2,14.4,8.4c5.5,2.2,12.3,2.4,18.8,2.4v0h19.1V74h-19.2c-3.5,0-6.7-0.6-9.6-1.9
				c-2.9-1.3-5.5-3-7.6-5.3c-2-2.1-3.6-4.7-4.7-7.7H80.3V42.7h19.9c0.3-1.7,0.7-3.4,1.4-5c1.2-3.1,2.9-5.9,5-8.2
				c2.2-2.3,4.7-4.1,7.7-5.4c3-1.3,6.3-2,9.9-2h18.8V3.6H122.9z"/>
		</defs>
		<clipPath id="SVGID_2_">
			<use xlink:href="#SVGID_1_"  style="overflow:visible;"/>
		</clipPath>
		
			<linearGradient id="SVGID_3_" gradientUnits="userSpaceOnUse" x1="-0.3627" y1="218.5043" x2="0.6373" y2="218.5043" gradientTransform="matrix(155.8896 95.3244 95.3244 -155.8896 -20769.7773 34104.1836)">
			<stop  offset="0" style="stop-color:#1DB7CB"/>
			<stop  offset="0.2252" style="stop-color:#18A4B4"/>
			<stop  offset="0.7407" style="stop-color:#0E848F"/>
			<stop  offset="1" style="stop-color:#097883"/>
		</linearGradient>
		<polygon class="st1" points="39.7,-59.4 183.7,28.6 104.3,158.6 -39.7,70.5 		"/>
	</g>
</g>
</svg>
